<svg xmlns="http://www.w3.org/2000/svg" viewBox="0 0 1440 320"><path fill="#fff" fill-opacity="1" d="M0,128L24,128C48,128,96,128,144,117.3C192,107,240,85,288,90.7C336,96,384,128,432,154.7C480,181,528,203,576,181.3C624,160,672,96,720,112C768,128,816,224,864,245.3C912,267,960,213,1008,170.7C1056,128,1104,96,1152,74.7C1200,53,1248,43,1296,37.3C1344,32,1392,32,1416,32L1440,32L1440,320L1416,320C1392,320,1344,320,1296,320C1248,320,1200,320,1152,320C1104,320,1056,320,1008,320C960,320,912,320,864,320C816,320,768,320,720,320C672,320,624,320,576,320C528,320,480,320,432,320C384,320,336,320,288,320C240,320,192,320,144,320C96,320,48,320,24,320L0,320Z"></path></svg>