
<svg xmlns="http://www.w3.org/2000/svg" viewBox="0 0 1440 320"><path fill="#0B1A2F" fill-opacity="1" d="M0,160L26.7,160C53.3,160,107,160,160,186.7C213.3,213,267,267,320,250.7C373.3,235,427,149,480,122.7C533.3,96,587,128,640,154.7C693.3,181,747,203,800,197.3C853.3,192,907,160,960,133.3C1013.3,107,1067,85,1120,106.7C1173.3,128,1227,192,1280,224C1333.3,256,1387,256,1413,256L1440,256L1440,320L1413.3,320C1386.7,320,1333,320,1280,320C1226.7,320,1173,320,1120,320C1066.7,320,1013,320,960,320C906.7,320,853,320,800,320C746.7,320,693,320,640,320C586.7,320,533,320,480,320C426.7,320,373,320,320,320C266.7,320,213,320,160,320C106.7,320,53,320,27,320L0,320Z"></path></svg>
