<svg viewBox="0 0 200 200" xmlns="http://www.w3.org/2000/svg">
  <path fill="#FFF" d="M43.8,-70.6C58,-67.6,71.6,-58.4,79.7,-45.6C87.7,-32.8,90.3,-16.4,90.3,0C90.3,16.4,87.7,32.8,78.8,44.2C70,55.7,54.8,62.2,40.6,68.3C26.4,74.4,13.2,80.1,-0.4,80.8C-14.1,81.6,-28.2,77.5,-41.3,70.7C-54.3,64,-66.3,54.6,-75,42.3C-83.7,30.1,-89.1,15.1,-85.3,2.2C-81.5,-10.7,-68.4,-21.3,-58.5,-31.3C-48.5,-41.4,-41.6,-50.8,-32.4,-56.6C-23.2,-62.5,-11.6,-64.8,1.6,-67.5C14.8,-70.3,29.6,-73.6,43.8,-70.6Z" transform="translate(100 100)" />
</svg>