<svg viewBox="0 0 200 200" xmlns="http://www.w3.org/2000/svg">
  <path fill="#FFF" d="M46.1,-80C59.1,-72.3,68.7,-58.7,75.7,-44.4C82.7,-30.1,87.2,-15.1,86.9,-0.1C86.7,14.8,81.7,29.6,74.8,43.9C67.8,58.3,58.8,72.3,46,80.6C33.2,88.8,16.6,91.3,0.3,90.8C-16.1,90.4,-32.1,86.9,-45.2,78.8C-58.2,70.7,-68.2,57.9,-74.9,44C-81.5,30.1,-84.9,15,-86.1,-0.7C-87.2,-16.4,-86.1,-32.7,-79.7,-47.1C-73.3,-61.4,-61.5,-73.8,-47.3,-80.9C-33.2,-88,-16.6,-89.8,0,-89.7C16.5,-89.6,33,-87.7,46.1,-80Z" transform="translate(96 100) scale(1.1)" />
</svg>