<svg viewBox="0 0 200 200" xmlns="http://www.w3.org/2000/svg">
  <path fill="#FFF" d="M37.2,-59.8C50.8,-56.5,66.2,-51.8,74.7,-41.6C83.2,-31.4,84.7,-15.7,81.6,-1.8C78.5,12.1,70.8,24.3,59.5,29.7C48.3,35.1,33.5,33.8,23,36.4C12.5,38.9,6.3,45.3,-1.3,47.5C-8.8,49.7,-17.7,47.8,-26.1,44C-34.5,40.3,-42.5,34.7,-51.5,27.1C-60.6,19.4,-70.7,9.7,-76.5,-3.4C-82.4,-16.5,-84,-32.9,-75.4,-41.4C-66.8,-49.8,-48,-50.2,-33.7,-53.1C-19.5,-56.1,-9.7,-61.5,1,-63.3C11.8,-65.1,23.6,-63.2,37.2,-59.8Z" transform="translate(100 100)" />
</svg>