<svg viewBox="0 0 200 200" xmlns="http://www.w3.org/2000/svg">
  <path fill="#2f80ed" d="M28,-44.6C38.5,-42.4,50.8,-39.4,62.9,-31.8C75.1,-24.3,87.2,-12.1,91.1,2.2C95,16.6,90.6,33.2,81.1,45.5C71.7,57.8,57.2,65.9,42.8,67.9C28.5,69.8,14.2,65.6,3.6,59.3C-7,53,-13.9,44.6,-25.2,40.8C-36.4,37.1,-52,38.1,-63.2,32C-74.5,26,-81.4,13,-80.2,0.7C-79.1,-11.7,-69.9,-23.3,-59.2,-30.3C-48.5,-37.3,-36.3,-39.5,-26.2,-42C-16.1,-44.5,-8,-47.2,0.3,-47.8C8.7,-48.4,17.5,-46.9,28,-44.6Z" transform="translate(93 100), scale(1.13)" stroke='#BBB' stroke-width='3px'/>
</svg>