<svg viewBox="0 0 200 200" xmlns="http://www.w3.org/2000/svg">
  <path fill="#3282E7" d="M45.9,-79.3C59.3,-71.7,69.8,-59.1,76.6,-45C83.3,-30.9,86.3,-15.5,86.9,0.4C87.5,16.2,85.8,32.4,78.8,46C71.8,59.6,59.5,70.7,45.5,79C31.5,87.4,15.7,93.1,0.4,92.4C-14.9,91.7,-29.9,84.7,-43.4,76C-56.8,67.3,-68.9,57,-76.9,44.1C-85,31.1,-89.2,15.6,-88.6,0.3C-88,-14.9,-82.7,-29.8,-75.3,-43.9C-67.9,-58.1,-58.5,-71.5,-45.6,-79.4C-32.7,-87.3,-16.3,-89.6,0,-89.5C16.2,-89.5,32.5,-86.9,45.9,-79.3Z" transform="translate(100 100)" />
</svg>