<svg viewBox="0 0 200 200" xmlns="http://www.w3.org/2000/svg">
  <path fill="#EEE" d="M35.6,-60.3C49.9,-53.5,67.9,-51.5,75.6,-42.3C83.4,-33,81,-16.5,80.6,-0.3C80.1,16,81.6,32,76.3,45.5C71,59.1,59,70.2,45.1,73.7C31.3,77.2,15.7,73,2,69.6C-11.7,66.2,-23.4,63.5,-35.5,59C-47.6,54.5,-60,48.2,-68.2,38C-76.4,27.9,-80.4,13.9,-78.7,1C-77,-12,-69.5,-23.9,-62.6,-36.2C-55.7,-48.6,-49.2,-61.3,-38.9,-70.4C-28.5,-79.5,-14.3,-85,-1.8,-81.9C10.7,-78.8,21.3,-67.1,35.6,-60.3Z" transform="translate(100 100)" />
</svg>